<svg xmlns="http://www.w3.org/2000/svg" width="62" height="62" viewBox="0 0 62 62"><circle cx="31" cy="31" r="31" fill="#eff0f3"/><g transform="translate(17.04 19.413)"><path d="M5.4,53.85v-.427c0-1.416,0-2.831,0-4.247a2.872,2.872,0,0,1,3.041-3.03q5.515,0,11.031,0a2.87,2.87,0,0,1,3.037,3.034c0,1.329,0,2.657,0,3.986v.4h.414c1.233,0,2.468.039,3.7-.013a1.419,1.419,0,0,1,1.18,1.952,1.129,1.129,0,0,1-.969.626,2.925,2.925,0,0,1-.294,0H1.371c-.076,0-.153,0-.229,0A1.047,1.047,0,0,1,0,54.992a1.1,1.1,0,0,1,1.164-1.14c1.32-.005,2.64,0,3.961,0H5.4" transform="translate(0 -42.116)" fill="#001942"/><path d="M61.892,180.23H79c0,.212,0,.415,0,.618,0,.707.03,1.418-.024,2.122a2.818,2.818,0,0,1-2.888,2.668c-2,.011-3.993,0-5.989,0q-2.585,0-5.171,0a2.876,2.876,0,0,1-3.039-3.033c0-.782,0-1.564,0-2.378" transform="translate(-56.488 -164.497)" fill="#001942"/><path d="M214.821,0a15.948,15.948,0,0,1,2.145.148,3.931,3.931,0,0,1,3.125,3.874c.021.935.013,1.871,0,2.806-.01.794-.415,1.2-1.153,1.19A1.108,1.108,0,0,1,217.819,6.8c0-.87,0-1.74,0-2.611a1.743,1.743,0,0,0-1.88-1.868c-.883,0-1.766.009-2.648,0A1.137,1.137,0,0,1,212.163.83a1.12,1.12,0,0,1,1.086-.787c.523-.008,1.046,0,1.569,0Z" transform="translate(-193.591 0)" fill="#001942"/><path d="M21.4,204.543a15.8,15.8,0,0,1-2.145-.15,3.93,3.93,0,0,1-3.122-3.875c-.018-.924-.011-1.849,0-2.774a1.141,1.141,0,1,1,2.275.028c0,.859,0,1.719,0,2.578a1.743,1.743,0,0,0,1.881,1.866c.883,0,1.766-.007,2.648,0a1.14,1.14,0,1,1,.035,2.279c-.523.01-1.046,0-1.569,0l0,.042" transform="translate(-14.713 -179.37)" fill="#001942"/><path d="M220.262,199.33a17.043,17.043,0,0,1-.147,2.011A3.932,3.932,0,0,1,216.3,204.5c-.97.012-1.94.007-2.91,0a1.038,1.038,0,0,1-1.149-1.125,1.108,1.108,0,0,1,1.153-1.154c.9-.012,1.809,0,2.714,0a1.73,1.73,0,0,0,1.831-1.819c.006-.881,0-1.762,0-2.643a1.112,1.112,0,0,1,1.1-1.23,1.214,1.214,0,0,1,1.171,1.236c.009.522,0,1.044,0,1.566l.041,0" transform="translate(-193.718 -179.37)" fill="#001942"/><path d="M21.453.453c.491,0,.981,0,1.472,0A1.111,1.111,0,0,1,24.1,1.582a1.11,1.11,0,0,1-1.156,1.151c-.916.012-1.831,0-2.747,0A1.724,1.724,0,0,0,18.407,4.5c-.012.9,0,1.806,0,2.709a1.112,1.112,0,0,1-1.11,1.226A1.2,1.2,0,0,1,16.13,7.221c0-1.055-.039-2.114.037-3.164a4.047,4.047,0,0,1,3.88-3.6c.469-.007.937,0,1.406,0" transform="translate(-14.711 -0.412)" fill="#001942"/></g></svg>