<svg xmlns="http://www.w3.org/2000/svg" width="62" height="62" viewBox="0 0 62 62"><circle cx="31" cy="31" r="31" fill="#eff0f3"/><path d="M5.169,0A5.175,5.175,0,0,0,0,5.169V23.778a1.034,1.034,0,0,0,1.617.853l2.177-1.488,2.177,1.488a1.034,1.034,0,0,0,1.168,0l2.171-1.488,2.171,1.488a1.034,1.034,0,0,0,1.169,0l2.171-1.487,2.171,1.486a1.034,1.034,0,0,0,1.616-.852V5.169A5.175,5.175,0,0,0,13.44,0Zm6.2,14.474h-6.2a1.034,1.034,0,0,1,0-2.068h6.2a1.034,1.034,0,0,1,0,2.068m3.1-5.169a1.034,1.034,0,0,1-1.034,1.034H5.169a1.034,1.034,0,1,1,0-2.068H13.44A1.034,1.034,0,0,1,14.474,9.3" transform="translate(21.071 18.919)" fill="#001942"/></svg>