<svg xmlns="http://www.w3.org/2000/svg" width="62" height="62" viewBox="0 0 62 62"><circle cx="31" cy="31" r="31" fill="#eff0f3"/><g transform="translate(-44.027 -445.997)"><path d="M130.969,36.66,110.655,56.968a3.255,3.255,0,0,0,1.409.329h3.479a1.089,1.089,0,0,1,.775.321L118.2,59.5a5.452,5.452,0,0,0,3.864,1.61,5.517,5.517,0,0,0,1.762-.291,5.411,5.411,0,0,0,3.671-4.375l3.706-17.6a3.245,3.245,0,0,0-.238-2.184" transform="translate(-43.599 430.224)" fill="#001942"/><path d="M22.3.082,4.739,3.782a5.484,5.484,0,0,0-3.132,9.31l1.884,1.884a1.1,1.1,0,0,1,.321.777v3.479a3.256,3.256,0,0,0,.329,1.41L24.453.327A3.215,3.215,0,0,0,22.3.082" transform="translate(61.362 465)" fill="#001942"/></g></svg>