<svg xmlns="http://www.w3.org/2000/svg" width="821.151" height="791.343" viewBox="0 0 821.151 791.343"><g transform="translate(-0.5 0.5)"><path d="M269.373,182.185l-87.188,87.188a55.648,55.648,0,0,1-78.7,0L16.3,182.185a55.647,55.647,0,0,1,0-78.7L103.487,16.3a55.647,55.647,0,0,1,78.7,0l87.188,87.188a55.648,55.648,0,0,1,0,78.7" transform="translate(125.275 505.171)" fill="#fff"/><path d="M39.2,258.962,0,219.763V54.866l39.2-39.2a53.5,53.5,0,0,1,75.657,0l83.818,83.819a53.5,53.5,0,0,1,0,75.656l-83.818,83.819a53.5,53.5,0,0,1-75.657,0Z" transform="translate(1 324.407)" fill="#003083" stroke="rgba(0,0,0,0)" stroke-miterlimit="10" stroke-width="1"/><path d="M29.265,269.5,0,240.236V0H169.219l64.774,64.774a68.677,68.677,0,0,1,0,97.124l-107.6,107.6a68.676,68.676,0,0,1-97.126,0Z" transform="translate(1.001)" fill="#005dff" stroke="rgba(0,0,0,0)" stroke-miterlimit="10" stroke-width="1"/><path d="M580.078,392.324,392.324,580.078a119.833,119.833,0,0,1-169.471,0L35.1,392.324a119.833,119.833,0,0,1,0-169.471L222.853,35.1a119.833,119.833,0,0,1,169.471,0L580.078,222.853a119.833,119.833,0,0,1,0,169.471" transform="translate(205.974)" fill="#ffc001" stroke="rgba(0,0,0,0)" stroke-miterlimit="10" stroke-width="1"/></g></svg>