<svg xmlns="http://www.w3.org/2000/svg" width="39.237" height="39.234" viewBox="0 0 39.237 39.234"><g transform="translate(-54.612 -621.75)"><path d="M196.6,233.351h0l-11.206-19.078a1.85,1.85,0,0,0-3.227,0l-11.206,19.078a1.9,1.9,0,0,0,1.614,2.864h22.414a1.9,1.9,0,0,0,1.614-2.864m-12.823-.405a1.635,1.635,0,1,1,1.635-1.635,1.635,1.635,0,0,1-1.635,1.635m1.635-6.539a1.635,1.635,0,0,1-3.27,0v-4.9a1.635,1.635,0,0,1,3.27,0Z" transform="translate(-103.011 424.77)" fill="#ffc001"/><path d="M31.061,0H8.174A8.183,8.183,0,0,0,0,8.174V31.061a8.183,8.183,0,0,0,8.174,8.174h2.047a5.189,5.189,0,0,1,.276-4.489L21.723,15.637a5.121,5.121,0,0,1,8.885.031l8.627,14.683V8.174A8.183,8.183,0,0,0,31.061,0M6.539,8.174A1.635,1.635,0,1,1,8.174,6.539,1.635,1.635,0,0,1,6.539,8.174m6.539,0a1.635,1.635,0,1,1,1.635-1.635,1.635,1.635,0,0,1-1.635,1.635" transform="translate(54.612 621.75)" fill="#003083" opacity="0.51"/></g></svg>