<svg xmlns="http://www.w3.org/2000/svg" width="38.987" height="45.498" viewBox="0 0 38.987 45.498"><g transform="translate(302.985 -15224.999)"><path d="M27.356,53.736a14.33,14.33,0,0,1-11.08-23.417H8.949A8.959,8.959,0,0,0,0,39.268V64.324a8.959,8.959,0,0,0,8.949,8.949h17.9a8.959,8.959,0,0,0,8.949-8.949V50.987a14.264,14.264,0,0,1-8.439,2.748M19.687,66.113H10.738a1.79,1.79,0,0,1,0-3.579h8.949a1.79,1.79,0,1,1,0,3.579m5.369-7.159H10.738a1.79,1.79,0,0,1,0-3.579H25.056a1.79,1.79,0,0,1,0,3.579" transform="translate(-302.985 15197.225)" fill="#003083"/><path d="M224.543,213.429a11.631,11.631,0,1,0,11.631,11.631,11.631,11.631,0,0,0-11.631-11.631m5.264,10.693-3.929,3.586a3.6,3.6,0,0,1-2.547,1.028,3.653,3.653,0,0,1-2.6-1.077l-1.5-1.478a1.576,1.576,0,0,1,2.213-2.243l1.5,1.485a.525.525,0,0,0,.749.007l3.98-3.636a1.576,1.576,0,0,1,2.226.1h0a1.575,1.575,0,0,1-.1,2.226" transform="translate(-500.172 15011.57)" fill="#ffc001"/></g></svg>