<svg xmlns="http://www.w3.org/2000/svg" width="62" height="62" viewBox="0 0 62 62"><circle cx="31" cy="31" r="31" fill="#eff0f3"/><path d="M23.756,16.4l-.531-.307a10.548,10.548,0,0,0,0-3.85l.531-.307A3.542,3.542,0,1,0,20.225,5.8l-.532.307a10.607,10.607,0,0,0-3.378-1.949V3.543a3.543,3.543,0,1,0-7.086,0v.614A10.606,10.606,0,0,0,5.852,6.106L5.32,5.8A3.545,3.545,0,0,0,1.777,11.94l.531.307a10.552,10.552,0,0,0,0,3.85l-.531.307a3.542,3.542,0,1,0,3.531,6.141l.532-.307a10.606,10.606,0,0,0,3.378,1.949V24.8a3.543,3.543,0,1,0,7.086,0v-.614a10.607,10.607,0,0,0,3.378-1.949l.531.307a3.513,3.513,0,0,0,2.693.354,3.547,3.547,0,0,0,.85-6.5ZM9.477,15.649a1.176,1.176,0,0,1,0,1.665,1.159,1.159,0,0,1-.838.343,1.21,1.21,0,0,1-.839-.343L6.371,15.885a2.338,2.338,0,0,1,0-3.319L7.8,11.137A1.178,1.178,0,0,1,9.466,12.8L8.037,14.232l1.429,1.405Zm5.4-5.964-1.89,9.448a1.165,1.165,0,0,1-1.157.945.845.845,0,0,1-.236-.024,1.177,1.177,0,0,1-.921-1.394l1.89-9.448a1.181,1.181,0,0,1,2.315.472Zm4.3,6.2-1.429,1.429a1.16,1.16,0,0,1-.839.343,1.21,1.21,0,0,1-.839-.343,1.176,1.176,0,0,1,0-1.665L17.5,14.22,16.068,12.8a1.178,1.178,0,0,1,1.665-1.665l1.429,1.429a2.338,2.338,0,0,1,0,3.319Z" transform="translate(18.233 17.827)" fill="#001942"/></svg>