<svg xmlns="http://www.w3.org/2000/svg" width="62" height="62" viewBox="0 0 62 62"><circle cx="31" cy="31" r="31" fill="#eff0f3"/><path d="M12.836.029A12,12,0,0,0,.03,12.854C.47,19.208,6.082,24,13.084,24H19a5.006,5.006,0,0,0,5-5V12.34A12.21,12.21,0,0,0,12.836.029ZM7.291,12.757l2.535,2.536a1,1,0,1,1-1.414,1.414L5.877,14.171a3.006,3.006,0,0,1,0-4.242L8.513,7.293A1,1,0,1,1,9.927,8.707L7.291,11.343a1,1,0,0,0,0,1.414Zm10.833,1.414-2.536,2.536a1,1,0,1,1-1.414-1.414l2.536-2.536a1,1,0,0,0,0-1.414L14.074,8.707a1,1,0,0,1,1.414-1.414l2.636,2.636a3.006,3.006,0,0,1,0,4.242Z" transform="translate(17.999 18.999)" fill="#001942"/></svg>