<svg xmlns="http://www.w3.org/2000/svg" xmlns:xlink="http://www.w3.org/1999/xlink" width="62" height="62" viewBox="0 0 62 62"><defs><clipPath id="a"><rect width="26.125" height="29.238" fill="#001942"/></clipPath></defs><circle cx="31" cy="31" r="31" fill="#eff0f3"/><g transform="translate(1720 556)"><path d="M12.727,8.788l-.285-.165a5.651,5.651,0,0,0,0-2.063l.285-.164a1.9,1.9,0,1,0-1.892-3.29l-.285.165a5.682,5.682,0,0,0-1.81-1.044V1.9a1.9,1.9,0,1,0-3.8,0v.329a5.682,5.682,0,0,0-1.81,1.044L2.85,3.107A1.9,1.9,0,0,0,.952,6.4l.285.164a5.653,5.653,0,0,0,0,2.063l-.285.165a1.9,1.9,0,1,0,1.892,3.29l.285-.165a5.682,5.682,0,0,0,1.81,1.044v.329a1.9,1.9,0,1,0,3.8,0v-.329a5.682,5.682,0,0,0,1.81-1.044l.285.165a1.882,1.882,0,0,0,1.443.19,1.9,1.9,0,0,0,.456-3.48Zm-7.649-.4a.63.63,0,0,1,0,.892.621.621,0,0,1-.449.183.648.648,0,0,1-.449-.183L3.413,8.51a1.253,1.253,0,0,1,0-1.778l.766-.766a.631.631,0,0,1,.892.892l-.766.766.766.753Zm2.891-3.2L6.956,10.25a.624.624,0,0,1-.62.506.453.453,0,0,1-.127-.013A.631.631,0,0,1,5.716,10L6.729,4.935a.633.633,0,0,1,1.24.253Zm2.3,3.322-.766.766a.621.621,0,0,1-.449.183.648.648,0,0,1-.449-.183.63.63,0,0,1,0-.892l.766-.766-.766-.759A.631.631,0,0,1,9.5,5.966l.766.766a1.253,1.253,0,0,1,0,1.778Z" transform="translate(-1695.839 -531.592)" fill="#001942"/><g transform="translate(-1702.063 -538.619)"><g clip-path="url(#a)"><path d="M13.048,0a2.97,2.97,0,0,1,2.917,3.64.327.327,0,0,0,.182.431q2.257,1.287,4.5,2.6a.323.323,0,0,0,.46-.051,2.986,2.986,0,0,1,5.016,2.116,2.927,2.927,0,0,1-2.041,2.895c-.336.11-.336.114-.336.469,0,1.688,0,3.376,0,5.064,0,.236.051.356.3.432a2.974,2.974,0,0,1-.254,5.741,2.81,2.81,0,0,1-2.66-.708.361.361,0,0,0-.517-.05q-2.23,1.3-4.472,2.58a.308.308,0,0,0-.186.4,2.979,2.979,0,1,1-5.8,1.351,2.665,2.665,0,0,1,0-1.32.318.318,0,0,0-.174-.435q-2.273-1.293-4.531-2.614a.278.278,0,0,0-.4.049,2.979,2.979,0,1,1-2.989-4.982.39.39,0,0,0,.331-.446c-.014-1.7-.011-3.4,0-5.1,0-.235-.049-.353-.3-.431A2.926,2.926,0,0,1,0,8.666a2.954,2.954,0,0,1,2.429-2.8,2.873,2.873,0,0,1,2.59.757.319.319,0,0,0,.461.052Q7.711,5.367,9.953,4.088a.342.342,0,0,0,.2-.453A2.975,2.975,0,0,1,13.048,0M5.992,8.8A2.99,2.99,0,0,1,3.9,11.637c-.192.064-.312.127-.311.365.009,1.746.006,3.491,0,5.237a.29.29,0,0,0,.244.337,2.956,2.956,0,0,1,2.048,3.567.264.264,0,0,0,.148.349q2.3,1.317,4.589,2.653A.262.262,0,0,0,11,24.107a2.938,2.938,0,0,1,4.135,0,.264.264,0,0,0,.377.043Q17.8,22.814,20.1,21.5a.267.267,0,0,0,.15-.348,2.945,2.945,0,0,1,2.041-3.571.294.294,0,0,0,.241-.338q-.006-2.619,0-5.237a.313.313,0,0,0-.257-.361A2.934,2.934,0,0,1,20.247,8.1a.284.284,0,0,0-.162-.375q-2.3-1.317-4.591-2.651a.249.249,0,0,0-.35.036,2.933,2.933,0,0,1-4.16,0,.246.246,0,0,0-.349-.038Q8.33,6.413,6.017,7.741c-.135.078-.194.144-.144.319a5.805,5.805,0,0,1,.119.739" transform="translate(0 0)" fill="#001942"/></g></g></g></svg>