<svg xmlns="http://www.w3.org/2000/svg" xmlns:xlink="http://www.w3.org/1999/xlink" width="62" height="62" viewBox="0 0 62 62"><defs><clipPath id="a"><rect width="26.475" height="26.475" fill="#001942"/></clipPath></defs><circle cx="31" cy="31" r="31" fill="#eff0f3"/><g transform="translate(17.847 18.678)"><g clip-path="url(#a)"><path d="M20.959,4.413H19.746A5.517,5.517,0,0,0,14.34,0H12.135A5.535,5.535,0,0,0,6.729,4.413H5.516A5.518,5.518,0,0,0,0,9.928v5.711H10.278q0-.3.006-.6a2.921,2.921,0,0,1,.885-2.06,2.952,2.952,0,0,1,2.074-.84h.011a2.947,2.947,0,0,1,2.94,2.884c0,.207,0,.413,0,.615H26.475V9.928a5.518,5.518,0,0,0-5.516-5.515m-11.924,0a3.3,3.3,0,0,1,3.111-2.206H14.34a3.321,3.321,0,0,1,3.111,2.206Zm6.309,11.745c0-.173,0-.345,0-.519,0-.2,0-.4,0-.6a2.093,2.093,0,0,0-2.09-2.051h-.009a2.091,2.091,0,0,0-2.106,2.06q0,.293-.006.588c0,.284,0,.568,0,.853q0,.378.007.757a2.092,2.092,0,0,0,2.09,2.052h.008a2.1,2.1,0,0,0,2.107-2.06c.005-.249,0-.5,0-.748,0-.112,0-.222,0-.334m.854.334c0,.249,0,.507,0,.766a2.948,2.948,0,0,1-2.959,2.9h-.011a2.944,2.944,0,0,1-2.938-2.89q-.006-.379-.009-.771H0v4.467a5.518,5.518,0,0,0,5.516,5.515H20.959a5.518,5.518,0,0,0,5.516-5.515V16.492Z" fill="#001942"/></g></g></svg>