<svg xmlns="http://www.w3.org/2000/svg" width="62" height="62" viewBox="0 0 62 62"><circle cx="31" cy="31" r="31" fill="#eff0f3"/><path d="M.107,6.3A5.39,5.39,0,0,1,5.372,2h15.04a5.39,5.39,0,0,1,5.264,4.3ZM25.783,8.446v9.669a5.373,5.373,0,0,1-5.372,5.372H5.372A5.373,5.373,0,0,1,0,18.115V8.446Zm-15.04,4.3a1.077,1.077,0,0,0-1.074-1.074h-4.3a1.074,1.074,0,1,0,0,2.149H6.446v4.3a1.074,1.074,0,0,0,2.149,0v-4.3H9.669A1.077,1.077,0,0,0,10.743,12.743Zm10.743,4.3a1.077,1.077,0,0,0-1.074-1.074H13.966a1.074,1.074,0,0,0,0,2.149h6.446A1.077,1.077,0,0,0,21.486,17.04Zm0-4.3a1.077,1.077,0,0,0-1.074-1.074H13.966a1.074,1.074,0,1,0,0,2.149h6.446A1.077,1.077,0,0,0,21.486,12.743Z" transform="translate(18.108 18.257)" fill="#001942"/></svg>