<svg xmlns="http://www.w3.org/2000/svg" xmlns:xlink="http://www.w3.org/1999/xlink" width="62" height="62" viewBox="0 0 62 62"><defs><clipPath id="a"><rect width="25.879" height="26.171" fill="#001942"/></clipPath></defs><circle cx="31" cy="31" r="31" fill="#eff0f3"/><g transform="translate(18.061 17.914)"><g clip-path="url(#a)"><path d="M15.652,21.932V19.6a2.253,2.253,0,0,1,1.3-2.039c-.246-.1-.493-.192-.742-.277a1.152,1.152,0,0,1-.949-1.2c0-.208.023-.306.207-.4A6.964,6.964,0,0,0,18.172,13.2a9.189,9.189,0,0,0,1.372-6.4,8.124,8.124,0,0,0-2.377-4.886,6.06,6.06,0,0,0-9.295.547,8.87,8.87,0,0,0-1.465,8.7,7.455,7.455,0,0,0,3.321,4.36c.582.34.572.329.481,1a.663.663,0,0,1-.472.6c-2.293.931-4.579,1.881-6.866,2.827a3.014,3.014,0,0,0-1.746,1.811Q.617,23.128.118,24.512c-.359.992.115,1.659,1.181,1.659H17.007a2.253,2.253,0,0,1-1.356-2.066ZM6.36,23.844c-.431.006-.863,0-1.294,0s-.839,0-1.259,0c-.387-.006-.639-.224-.645-.543a.568.568,0,0,1,.63-.557q1.294-.009,2.588,0c.393,0,.623.222.618.559s-.238.535-.638.54m1.967-11.2A8.594,8.594,0,0,1,7.048,8.084l-.094-.019Q7.2,6.834,7.441,5.6a.3.3,0,0,1,.368-.267c.279.018.561.005.842,0a.487.487,0,0,1,.541.471,1.646,1.646,0,0,0,1.857,1.579,5.462,5.462,0,0,0,3.114-.767,1.614,1.614,0,0,1,1.582-.06q1.271.589,2.526,1.212a.418.418,0,0,1,.212.3,8.131,8.131,0,0,1-1.69,5.126,5.147,5.147,0,0,1-8.467-.553m4.358,6.287a1.443,1.443,0,0,1-1.444-1.587c.033-.347,0-.8.2-1,.158-.161.628-.009.959-.006.291,0,.583,0,.873-.017s.55-.07.866-.113a12.23,12.23,0,0,1,.149,1.3,1.433,1.433,0,0,1-1.6,1.426" transform="translate(0.001 0)" fill="#001942"/><path d="M114.2,126.191a4,4,0,0,1-1.986-.49.569.569,0,0,1-.3-.789.562.562,0,0,1,.81-.228,2.93,2.93,0,0,0,2.817,0,.572.572,0,1,1,.523,1.012,3.786,3.786,0,0,1-1.867.5" transform="translate(-101.37 -112.918)" fill="#001942"/><path d="M154.777,89.313a.555.555,0,1,1-1.108.012.554.554,0,1,1,1.108-.012" transform="translate(-139.265 -80.443)" fill="#001942"/><path d="M107.339,88.88a.565.565,0,0,1,.559.555.575.575,0,0,1-.6.552.562.562,0,0,1-.535-.577.552.552,0,0,1,.577-.531" transform="translate(-96.754 -80.548)" fill="#001942"/><path d="M180.863,174.7h-.442a2.009,2.009,0,0,0-1.969-1.607h-.8a2.015,2.015,0,0,0-1.969,1.607h-.442a2.009,2.009,0,0,0-2.009,2.008v2.08h3.743q0-.109,0-.219a1.064,1.064,0,0,1,.322-.75,1.075,1.075,0,0,1,.755-.306h0a1.073,1.073,0,0,1,1.071,1.05c0,.075,0,.151,0,.224h3.742V176.7a2.009,2.009,0,0,0-2.009-2.008m-4.342,0a1.2,1.2,0,0,1,1.133-.8h.8a1.209,1.209,0,0,1,1.133.8Zm2.3,4.277c0-.063,0-.126,0-.189s0-.145,0-.217a.762.762,0,0,0-.761-.747h0a.761.761,0,0,0-.767.75q0,.107,0,.214c0,.1,0,.207,0,.31s0,.184,0,.275a.762.762,0,0,0,.761.747h0a.763.763,0,0,0,.767-.75c0-.091,0-.182,0-.272,0-.041,0-.081,0-.122m.311.122c0,.091,0,.185,0,.279a1.068,1.068,0,0,1-.323.748c-.2.2-.47.589-.755.589h0c-.281,0-.546-.39-.747-.588a1.055,1.055,0,0,1-.323-.731q0-.146,0-.3h-3.742v1.654a2.264,2.264,0,0,0,2.264,2.264h5.368A2.009,2.009,0,0,0,182.872,181v-1.91Z" transform="translate(-156.993 -156.864)" fill="#001942"/></g></g></svg>