<svg xmlns="http://www.w3.org/2000/svg" width="62" height="62" viewBox="0 0 62 62"><circle cx="31" cy="31" r="31" fill="#eff0f3"/><path d="M13.174,0A13.174,13.174,0,1,0,26.348,13.174,13.174,13.174,0,0,0,13.174,0Zm0,21.956a1.1,1.1,0,1,1,1.1-1.1A1.1,1.1,0,0,1,13.174,21.956Zm2.119-8.227a2.176,2.176,0,0,0-1.021,1.922v.816a1.1,1.1,0,0,1-2.2,0v-.816a4.341,4.341,0,0,1,2.156-3.842,2.2,2.2,0,0,0,1.1-2.333,2.222,2.222,0,0,0-1.757-1.751,2.2,2.2,0,0,0-2.6,2.155,1.1,1.1,0,0,1-2.2,0,4.391,4.391,0,1,1,6.51,3.848Z" transform="translate(17.826 17.826)" fill="#001942"/></svg>