<svg xmlns="http://www.w3.org/2000/svg" width="53.376" height="56.739" viewBox="0 0 53.376 56.739"><g transform="translate(0 0)"><path d="M22.843,1.553,11.358,13.038l-.417.417-8.2,8.2a9.365,9.365,0,0,0,0,13.244l4,4C5.1,33.46,7.18,32.5,11.58,27.821l6.863-6.863.417-.418L30.346,9.056a5.305,5.305,0,1,0-7.5-7.5" transform="translate(0 0.001)" fill="#001943"/><path d="M50.62,28.35,43.339,35.63l.007.007-8.614,8.614a9.365,9.365,0,0,0,0,13.244l4,4c-1.65-5.44.433-6.4,4.832-11.079l7.281-7.281-.007-.007,8.614-8.614a9.365,9.365,0,0,0,0-13.244l-4-4c1.65,5.441-.432,6.4-4.832,11.079" transform="translate(-20.409 -11.019)" fill="#ffc001"/><path d="M79.652,60.358,73.813,66.2l-1.442,1.442L60.887,79.123a5.305,5.305,0,0,0,7.5,7.5L79.874,75.141,81.316,73.7l7.173-7.173a9.365,9.365,0,0,0,0-13.244l-4-4c1.65,5.441-.432,6.4-4.833,11.079" transform="translate(-37.855 -31.44)" fill="#001943"/></g></svg>