<svg xmlns="http://www.w3.org/2000/svg" width="50" height="50" viewBox="0 0 50 50"><g transform="translate(-348.844 -5333.844)"><circle cx="25" cy="25" r="25" transform="translate(348.844 5333.844)" fill="#001942"/><g transform="translate(364.604 5349.598)"><g transform="translate(2.309 8.831)"><path d="M300.737,251.732v-4.463a.429.429,0,0,0-.429-.429h-.668a.429.429,0,0,0-.429.429v4.463a.429.429,0,0,0,.429.429h.668a.429.429,0,0,0,.429-.429" transform="translate(-290.816 -246.84)" fill="#fff"/><path d="M407.4,251.732v-4.463a.429.429,0,0,0-.429-.429h-.668a.429.429,0,0,0-.429.429v4.463a.429.429,0,0,0,.429.429h.668a.429.429,0,0,0,.429-.429" transform="translate(-393.667 -246.84)" fill="#fff"/><path d="M66.071,251.732v-4.463a.429.429,0,0,0-.429-.429h-.668a.429.429,0,0,0-.429.429v4.463a.429.429,0,0,0,.429.429h.668a.429.429,0,0,0,.429-.429" transform="translate(-64.545 -246.84)" fill="#fff"/><path d="M172.737,251.732v-4.463a.429.429,0,0,0-.429-.429h-.668a.429.429,0,0,0-.429.429v4.463a.429.429,0,0,0,.429.429h.668a.429.429,0,0,0,.429-.429" transform="translate(-167.395 -246.84)" fill="#fff"/></g><g transform="translate(0 0)"><path d="M.223,6.528A1.864,1.864,0,0,1,.34,4.569,3.6,3.6,0,0,1,1.613,3.424L7.337.445a3.949,3.949,0,0,1,3.644,0L16.7,3.427a3.6,3.6,0,0,1,1.273,1.145,1.865,1.865,0,0,1,.117,1.958,2.071,2.071,0,0,1-1.844,1.1H2.067A2.071,2.071,0,0,1,.223,6.528" transform="translate(0.001 0)" fill="#fff"/><path d="M18.1,428.259a1.526,1.526,0,0,0-1.476-1.525H2.784a1.526,1.526,0,0,0-1.476,1.525.763.763,0,1,0,0,1.526H18.1a.763.763,0,0,0,0-1.526" transform="translate(-0.525 -411.467)" fill="#fff"/></g></g></g></svg>