<svg width="40" height="41" viewBox="0 0 40 41" fill="none" xmlns="http://www.w3.org/2000/svg">
<path fill-rule="evenodd" clip-rule="evenodd" d="M31.6667 36.3333H10.0001C8.45299 36.3333 6.96925 35.7187 5.87529 34.6248C4.78133 33.5308 4.16675 32.0471 4.16675 30.5V8.73832C4.16675 6.95999 5.92675 5.83165 7.47508 6.36832C7.6973 6.44499 7.9123 6.55721 8.12008 6.70499L8.41175 6.91332C9.12118 7.4167 9.96988 7.68641 10.8397 7.68491C11.7096 7.68342 12.5574 7.4108 13.2651 6.90499C14.2585 6.19801 15.4475 5.81812 16.6667 5.81812C17.886 5.81812 19.075 6.19801 20.0684 6.90499C20.7761 7.4108 21.6239 7.68342 22.4937 7.68491C23.3636 7.68641 24.2123 7.4167 24.9217 6.91332L25.2134 6.70499C26.8684 5.52165 29.1667 6.70499 29.1667 8.73832V21.3333H35.0001C35.3316 21.3333 35.6495 21.465 35.884 21.6994C36.1184 21.9339 36.2501 22.2518 36.2501 22.5833V31.75C36.2501 32.9656 35.7672 34.1313 34.9077 34.9909C34.0481 35.8504 32.8823 36.3333 31.6667 36.3333ZM29.5834 23.8333V31.75C29.5834 32.3025 29.8029 32.8324 30.1936 33.2231C30.5843 33.6138 31.1142 33.8333 31.6667 33.8333C32.2193 33.8333 32.7492 33.6138 33.1399 33.2231C33.5306 32.8324 33.7501 32.3025 33.7501 31.75V23.8333H29.5834ZM22.5001 16.75C22.5001 16.4185 22.3684 16.1005 22.134 15.8661C21.8995 15.6317 21.5816 15.5 21.2501 15.5H11.2501C10.9186 15.5 10.6006 15.6317 10.3662 15.8661C10.1318 16.1005 10.0001 16.4185 10.0001 16.75C10.0001 17.0815 10.1318 17.3994 10.3662 17.6339C10.6006 17.8683 10.9186 18 11.2501 18H21.2501C21.5816 18 21.8995 17.8683 22.134 17.6339C22.3684 17.3994 22.5001 17.0815 22.5001 16.75ZM20.8334 21.75C20.8334 21.4185 20.7017 21.1005 20.4673 20.8661C20.2329 20.6317 19.9149 20.5 19.5834 20.5H11.2501C10.9186 20.5 10.6006 20.6317 10.3662 20.8661C10.1318 21.1005 10.0001 21.4185 10.0001 21.75C10.0001 22.0815 10.1318 22.3994 10.3662 22.6339C10.6006 22.8683 10.9186 23 11.2501 23H19.5834C19.9149 23 20.2329 22.8683 20.4673 22.6339C20.7017 22.3994 20.8334 22.0815 20.8334 21.75ZM21.2501 25.5C21.5816 25.5 21.8995 25.6317 22.134 25.8661C22.3684 26.1005 22.5001 26.4185 22.5001 26.75C22.5001 27.0815 22.3684 27.3995 22.134 27.6339C21.8995 27.8683 21.5816 28 21.2501 28H11.2501C10.9186 28 10.6006 27.8683 10.3662 27.6339C10.1318 27.3995 10.0001 27.0815 10.0001 26.75C10.0001 26.4185 10.1318 26.1005 10.3662 25.8661C10.6006 25.6317 10.9186 25.5 11.2501 25.5H21.2501Z" fill="#001943"/>
</svg>
