<svg xmlns="http://www.w3.org/2000/svg" width="50" height="50" viewBox="0 0 50 50"><g transform="translate(-1451 -5327)"><circle cx="25" cy="25" r="25" transform="translate(1451 5327)" fill="#001942"/><path d="M21.614,4.5h-.546a4.026,4.026,0,0,0-6.224-.66l-.51.51a1.458,1.458,0,0,0-.131.15H0A4.508,4.508,0,0,1,4.5,0H17.111a4.508,4.508,0,0,1,4.5,4.5" transform="translate(1465.193 5343.894)" fill="#fff"/><path d="M20.535,152.56l-2.649,2.649a4,4,0,0,1-1.962,1.082,1.539,1.539,0,0,1,.019.243,1.484,1.484,0,0,1-.439,1.057L15,158.1a3.994,3.994,0,0,1-2.264,1.137h4.379a4.509,4.509,0,0,0,4.5-4.5V150.6a4,4,0,0,1-1.079,1.961m-2.479-2.318a1.473,1.473,0,0,1,.2.372l.168-.167a1.039,1.039,0,0,0,.228-1.116H17.138a4.079,4.079,0,0,1,.507.431,4.013,4.013,0,0,1,.411.481m-5.036,5.6a4.033,4.033,0,0,1-.824-.637,4.093,4.093,0,0,1-.409-.477,1.5,1.5,0,0,1-.2-.376l-.167.167a1.034,1.034,0,1,0,1.462,1.462Zm-4.894-.592a4,4,0,0,1,1.179-2.845l2.649-2.649a4.019,4.019,0,0,1,.506-.43H0v5.4a4.509,4.509,0,0,0,4.5,4.5H11.57a4.027,4.027,0,0,1-3.443-3.983m-3.174.38A1.351,1.351,0,1,1,6.3,154.284a1.351,1.351,0,0,1-1.351,1.351" transform="translate(1465.193 5200.869)" fill="#fff"/><path d="M220.285,94.941a3.13,3.13,0,0,1-.309-.36.482.482,0,0,1,.779-.567,2.047,2.047,0,0,0,3.106.246l2.649-2.649a2.047,2.047,0,0,0-2.9-2.9l-.51.51a.482.482,0,0,1-.681-.681l.51-.51a3.011,3.011,0,0,1,4.258,4.258l-2.649,2.649a3.01,3.01,0,0,1-4.257,0Zm-.762,3.772a2.989,2.989,0,0,0,2.129-.882l.51-.51a.482.482,0,0,0-.681-.681l-.51.51a2.047,2.047,0,1,1-2.895-2.895l2.649-2.649a2.047,2.047,0,0,1,2.9,0,2.122,2.122,0,0,1,.21.246.482.482,0,0,0,.779-.566,3.01,3.01,0,0,0-4.565-.36l-2.649,2.649a3.011,3.011,0,0,0,2.129,5.139" transform="translate(1257.821 5260.42)" fill="#fff"/></g></svg>