<svg xmlns="http://www.w3.org/2000/svg" width="50" height="50" viewBox="0 0 50 50"><g transform="translate(-136.093 -5475.093)"><circle cx="25" cy="25" r="25" transform="translate(136.093 5475.093)" fill="#001942"/><g transform="translate(149.919 5490.894)"><path d="M4.5,52.557V52.2c0-1.178,0-2.356,0-3.534a2.39,2.39,0,0,1,2.531-2.522q4.59,0,9.18,0a2.388,2.388,0,0,1,2.528,2.525c0,1.106,0,2.211,0,3.317v.331h.344c1.026,0,2.054.033,3.078-.011a1.181,1.181,0,0,1,.982,1.624.94.94,0,0,1-.807.521,2.434,2.434,0,0,1-.245,0H1.141c-.064,0-.127,0-.191,0A.871.871,0,0,1,0,53.507a.916.916,0,0,1,.969-.948c1.1,0,2.2,0,3.3,0H4.5" transform="translate(0 -42.791)" fill="#fff"/><path d="M61.892,180.23H76.132c0,.177,0,.345,0,.515,0,.589.025,1.18-.02,1.766a2.345,2.345,0,0,1-2.4,2.221c-1.661.009-3.323,0-4.984,0q-2.152,0-4.3,0a2.393,2.393,0,0,1-2.529-2.524c0-.651,0-1.3,0-1.979" transform="translate(-57.395 -167.137)" fill="#fff"/><path d="M214.365,0a13.273,13.273,0,0,1,1.785.123,3.272,3.272,0,0,1,2.6,3.224c.017.778.011,1.557,0,2.336-.008.661-.345,1-.959.99a.922.922,0,0,1-.933-1.011c0-.724,0-1.448,0-2.173a1.45,1.45,0,0,0-1.565-1.554c-.735,0-1.469.007-2.2,0a.946.946,0,0,1-.937-1.242.932.932,0,0,1,.9-.655c.435-.007.871,0,1.306,0Z" transform="translate(-196.698 0)" fill="#fff"/><path d="M20.513,203.2a13.151,13.151,0,0,1-1.785-.125,3.27,3.27,0,0,1-2.6-3.225c-.015-.769-.009-1.539,0-2.308a.95.95,0,1,1,1.893.024c0,.715,0,1.43,0,2.146a1.45,1.45,0,0,0,1.566,1.553c.735,0,1.469-.006,2.2,0a.948.948,0,1,1,.029,1.9c-.435.009-.871,0-1.306,0l0,.035" transform="translate(-14.949 -182.248)" fill="#fff"/><path d="M218.917,198.859a14.177,14.177,0,0,1-.123,1.674,3.272,3.272,0,0,1-3.172,2.628c-.807.01-1.615.006-2.422,0a.864.864,0,0,1-.956-.937.922.922,0,0,1,.959-.96c.753-.01,1.506,0,2.258,0a1.44,1.44,0,0,0,1.524-1.514c.005-.733,0-1.467,0-2.2a.925.925,0,0,1,.919-1.024,1.011,1.011,0,0,1,.974,1.029c.007.434,0,.869,0,1.3l.034,0" transform="translate(-196.826 -182.248)" fill="#fff"/><path d="M20.558.453c.408,0,.816,0,1.225,0a.925.925,0,0,1,.98.939.924.924,0,0,1-.962.958c-.762.01-1.524,0-2.286,0a1.435,1.435,0,0,0-1.491,1.462c-.01.751,0,1.5,0,2.254a.925.925,0,0,1-.923,1.02,1,1,0,0,1-.968-1.006c0-.878-.032-1.759.031-2.633a3.368,3.368,0,0,1,3.229-3c.39-.006.78,0,1.17,0" transform="translate(-14.947 -0.418)" fill="#fff"/></g></g></svg>