<svg xmlns="http://www.w3.org/2000/svg" width="10.93" height="14.573" viewBox="0 0 10.93 14.573"><path d="M3.036,0A3.04,3.04,0,0,0,0,3.036v10.93a.607.607,0,0,0,.95.5l1.279-.874,1.279.874a.607.607,0,0,0,.686,0l1.275-.874,1.275.874a.607.607,0,0,0,.687,0l1.275-.873,1.275.873a.607.607,0,0,0,.949-.5V3.036A3.04,3.04,0,0,0,7.894,0ZM6.679,8.5H3.036a.607.607,0,0,1,0-1.214H6.679a.607.607,0,0,1,0,1.214M8.5,5.465a.607.607,0,0,1-.607.607H3.036a.607.607,0,1,1,0-1.214H7.894a.607.607,0,0,1,.607.607" fill="#5e5e5e"/></svg>