<svg xmlns="http://www.w3.org/2000/svg" width="15.12" height="15.12" viewBox="0 0 15.12 15.12"><path d="M15.12,11.97a1.892,1.892,0,0,1-1.89,1.89v.63a.63.63,0,0,1-1.26,0v-.63H11.8a1.9,1.9,0,0,1-1.637-.944.63.63,0,1,1,1.09-.631.634.634,0,0,0,.546.315h1.429a.631.631,0,0,0,.63-.63.484.484,0,0,0-.406-.479l-1.916-.319A1.739,1.739,0,0,1,10.079,9.45a1.892,1.892,0,0,1,1.89-1.89V6.93a.63.63,0,1,1,1.26,0v.63H13.4a1.9,1.9,0,0,1,1.637.945.63.63,0,1,1-1.09.631.633.633,0,0,0-.546-.315H11.97a.631.631,0,0,0-.63.63.484.484,0,0,0,.406.479l1.916.319a1.739,1.739,0,0,1,1.458,1.722ZM8.19,5.04h4.12a4.4,4.4,0,0,0-1-1.552l-2.195-2.2A4.4,4.4,0,0,0,7.56.29V4.41A.631.631,0,0,0,8.19,5.04Zm2.437,9.851a3.129,3.129,0,0,1-1.177.229H3.15A3.154,3.154,0,0,1,0,11.97V3.15A3.154,3.154,0,0,1,3.15,0H5.994c.1,0,.2.008.306.015V4.41A1.892,1.892,0,0,0,8.19,6.3h2.628a1.9,1.9,0,0,0-.069.246A3.171,3.171,0,0,0,9.043,8.285a1.575,1.575,0,0,0-.539-.1H4.1A1.577,1.577,0,0,0,2.52,9.765v1.26A1.577,1.577,0,0,0,4.1,12.6H8.5a1.565,1.565,0,0,0,.314-.032,1.876,1.876,0,0,0,.255.978,3.157,3.157,0,0,0,1.554,1.346ZM2.52,3.78a.63.63,0,0,0,.63.63H4.41a.63.63,0,1,0,0-1.26H3.15a.63.63,0,0,0-.63.63m0,2.52a.63.63,0,0,0,.63.63H4.41a.63.63,0,0,0,0-1.26H3.15a.63.63,0,0,0-.63.63M4.1,9.45a.315.315,0,0,0-.315.315v1.26a.315.315,0,0,0,.315.315H8.5a.315.315,0,0,0,.315-.315V9.765A.315.315,0,0,0,8.5,9.45Z" transform="translate(0)" fill="#5e5e5e"/></svg>