<svg xmlns="http://www.w3.org/2000/svg" width="15.768" height="11.826" viewBox="0 0 15.768 11.826"><path d="M15.768,3.285h-.4a2.937,2.937,0,0,0-4.54-.481l-.372.372a1.064,1.064,0,0,0-.1.109H0A3.289,3.289,0,0,1,3.285,0h9.2a3.289,3.289,0,0,1,3.285,3.285" fill="#5e5e5e"/><path d="M14.981,151.686l-1.933,1.933a2.917,2.917,0,0,1-1.431.789,1.123,1.123,0,0,1,.014.177,1.083,1.083,0,0,1-.32.771l-.371.371a2.914,2.914,0,0,1-1.652.83h3.195a3.289,3.289,0,0,0,3.285-3.285v-3.017a2.918,2.918,0,0,1-.787,1.431M13.172,150a1.074,1.074,0,0,1,.144.271l.122-.122a.758.758,0,0,0,.167-.814H12.5a2.975,2.975,0,0,1,.37.314,2.929,2.929,0,0,1,.3.351M9.5,154.083a2.943,2.943,0,0,1-.6-.464,2.989,2.989,0,0,1-.3-.348A1.1,1.1,0,0,1,8.452,153l-.122.122A.754.754,0,1,0,9.4,154.185Zm-3.57-.432a2.914,2.914,0,0,1,.86-2.075l1.932-1.932a2.933,2.933,0,0,1,.369-.314H0v3.942a3.289,3.289,0,0,0,3.285,3.285H8.44a2.938,2.938,0,0,1-2.512-2.905m-2.315.278a.985.985,0,1,1,.985-.986.986.986,0,0,1-.985.986" transform="translate(0 -144.731)" fill="#5e5e5e"/><path d="M219.264,92.834a2.282,2.282,0,0,1-.225-.263.351.351,0,0,1,.568-.414,1.494,1.494,0,0,0,2.265.18l1.933-1.933a1.494,1.494,0,1,0-2.112-2.112l-.372.372a.351.351,0,0,1-.5-.5l.372-.372A2.2,2.2,0,1,1,224.3,90.9l-1.933,1.933a2.2,2.2,0,0,1-3.105,0Zm-.556,2.751a2.181,2.181,0,0,0,1.553-.643l.372-.372a.351.351,0,0,0-.5-.5l-.372.372a1.493,1.493,0,1,1-2.112-2.112l1.933-1.933a1.493,1.493,0,0,1,2.112,0,1.55,1.55,0,0,1,.153.179.351.351,0,0,0,.569-.413,2.2,2.2,0,0,0-3.331-.263l-1.932,1.933a2.2,2.2,0,0,0,1.553,3.749" transform="translate(-209.844 -84.468)" fill="#5e5e5e"/></svg>