<svg xmlns="http://www.w3.org/2000/svg" width="14.344" height="14.343" viewBox="0 0 14.344 14.343"><path d="M4.781,4.781v7.172a2.391,2.391,0,1,1-4.781,0V4.781a2.391,2.391,0,0,1,4.781,0m1.2,1.2h8.367v5.379a2.989,2.989,0,0,1-2.988,2.988h-6.3a3.573,3.573,0,0,0,.92-2.391Zm4.781,2.689a.9.9,0,1,0,.9-.9.9.9,0,0,0-.9.9m0,2.988a.9.9,0,1,0,.9-.9.9.9,0,0,0-.9.9M7.769,8.666a.9.9,0,1,0,.9-.9.9.9,0,0,0-.9.9m0,2.988a.9.9,0,1,0,.9-.9.9.9,0,0,0-.9.9m4.184-8.068a1.2,1.2,0,0,1-1.2-1.2V0H8.367A2.39,2.39,0,0,0,5.976,2.391V4.781h8.367v-1.2Zm0-1.2h2.008a2.009,2.009,0,0,0-.143-.173L12.126.526a2.01,2.01,0,0,0-.173-.143Z" fill="#5e5e5e"/></svg>