<svg xmlns="http://www.w3.org/2000/svg" width="14.502" height="13.075" viewBox="0 0 14.502 13.075"><path d="M2.806,50.146v-.222c0-.735,0-1.471,0-2.206a1.492,1.492,0,0,1,1.58-1.574q2.865,0,5.73,0a1.49,1.49,0,0,1,1.578,1.576c0,.69,0,1.38,0,2.07V50h.215c.64,0,1.282.02,1.921-.007A.737.737,0,0,1,14.443,51a.586.586,0,0,1-.5.325,1.519,1.519,0,0,1-.153,0H.593A.544.544,0,0,1,0,50.739a.572.572,0,0,1,.6-.592c.686,0,1.371,0,2.057,0h.145" transform="translate(0 -44.051)" fill="#5e5e5e"/><path d="M61.891,180.23h8.888c0,.11,0,.216,0,.321,0,.367.015.737-.013,1.1a1.464,1.464,0,0,1-1.5,1.386c-1.037.006-2.074,0-3.111,0q-1.343,0-2.686,0a1.494,1.494,0,0,1-1.578-1.575c0-.406,0-.812,0-1.235" transform="translate(-59.085 -172.058)" fill="#5e5e5e"/><path d="M213.516,0a8.284,8.284,0,0,1,1.114.077,2.042,2.042,0,0,1,1.623,2.012c.011.486.007.972,0,1.458-.005.412-.215.623-.6.618a.575.575,0,0,1-.582-.631c0-.452,0-.9,0-1.356a.905.905,0,0,0-.977-.97c-.458,0-.917,0-1.376,0a.59.59,0,0,1-.585-.775A.582.582,0,0,1,212.7.022c.272,0,.543,0,.815,0Z" transform="translate(-202.49)" fill="#5e5e5e"/><path d="M18.862,200.689a8.206,8.206,0,0,1-1.114-.078,2.041,2.041,0,0,1-1.622-2.013c-.01-.48-.006-.96,0-1.441a.593.593,0,1,1,1.182.015c0,.446,0,.893,0,1.339a.905.905,0,0,0,.977.969c.459,0,.917,0,1.376,0a.592.592,0,1,1,.018,1.184c-.272.005-.543,0-.815,0v.022" transform="translate(-15.389 -187.614)" fill="#5e5e5e"/><path d="M216.409,197.982a8.847,8.847,0,0,1-.077,1.045,2.042,2.042,0,0,1-1.979,1.64c-.5.006-1.008,0-1.511,0a.539.539,0,0,1-.6-.584.576.576,0,0,1,.6-.6c.47-.006.94,0,1.41,0a.9.9,0,0,0,.951-.945c0-.458,0-.915,0-1.373a.577.577,0,0,1,.573-.639.631.631,0,0,1,.608.642c0,.271,0,.542,0,.814h.021" transform="translate(-202.622 -187.614)" fill="#5e5e5e"/><path d="M18.889.452c.255,0,.51,0,.764,0a.577.577,0,0,1,.611.586.577.577,0,0,1-.6.6c-.476.006-.951,0-1.427,0a.9.9,0,0,0-.931.913c-.006.469,0,.938,0,1.407a.578.578,0,0,1-.576.637.624.624,0,0,1-.6-.628c0-.548-.02-1.1.019-1.643A2.1,2.1,0,0,1,18.159.453c.243,0,.487,0,.73,0" transform="translate(-15.388 -0.431)" fill="#5e5e5e"/></svg>