<svg xmlns="http://www.w3.org/2000/svg" width="14.582" height="14.582" viewBox="0 0 14.582 14.582"><path d="M12.152,3.038a.609.609,0,0,0-.608-.608H3.038a.609.609,0,0,0-.608.608v8.506a3.039,3.039,0,0,0,3.038,3.038H9.114a3.039,3.039,0,0,0,3.038-3.038ZM5.164,12.759a.911.911,0,1,1,.911-.911.91.91,0,0,1-.911.911m-.3-5.468a2.43,2.43,0,1,1,2.43,2.43,2.43,2.43,0,0,1-2.43-2.43m4.557,5.468a.911.911,0,1,1,.911-.911.91.91,0,0,1-.911.911M8.506,7.291A1.215,1.215,0,1,1,7.291,6.076,1.219,1.219,0,0,1,8.506,7.291M14.582,2.43v.608a2.418,2.418,0,0,1-1.215,2.09V2.43a1.219,1.219,0,0,0-1.215-1.215H2.43A1.219,1.219,0,0,0,1.215,2.43v2.7A2.418,2.418,0,0,1,0,3.038V2.43A2.43,2.43,0,0,1,2.43,0h9.721a2.43,2.43,0,0,1,2.43,2.43" fill="#5e5e5e"/></svg>