<svg xmlns="http://www.w3.org/2000/svg" width="16.936" height="16.939" viewBox="0 0 16.936 16.939"><path d="M123.719,36.66,110.655,49.72a2.094,2.094,0,0,0,.906.212H113.8a.7.7,0,0,1,.5.207l1.212,1.212a3.506,3.506,0,0,0,2.485,1.035,3.547,3.547,0,0,0,1.133-.187,3.48,3.48,0,0,0,2.361-2.814l2.383-11.321a2.087,2.087,0,0,0-.153-1.4" transform="translate(-106.994 -35.447)" fill="#5e5e5e"/><path d="M14.341.054,3.047,2.434A3.527,3.527,0,0,0,1.033,8.421L2.245,9.632a.705.705,0,0,1,.207.5v2.237a2.094,2.094,0,0,0,.212.906L15.724.212A2.067,2.067,0,0,0,14.341.054" transform="translate(0 0)" fill="#5e5e5e"/></svg>