<svg xmlns="http://www.w3.org/2000/svg" width="15.12" height="16.785" viewBox="0 0 15.12 16.785"><path d="M14.067,9.714l-.315-.182a6.246,6.246,0,0,0,0-2.28l.315-.182a2.1,2.1,0,1,0-2.091-3.637l-.315.182a6.281,6.281,0,0,0-2-1.154V2.1a2.1,2.1,0,1,0-4.2,0v.364a6.28,6.28,0,0,0-2,1.154L3.15,3.434a2.1,2.1,0,0,0-2.1,3.637l.315.182a6.248,6.248,0,0,0,0,2.28l-.315.182a2.1,2.1,0,1,0,2.091,3.637l.315-.182a6.28,6.28,0,0,0,2,1.154v.364a2.1,2.1,0,1,0,4.2,0v-.364a6.281,6.281,0,0,0,2-1.154l.315.182a2.081,2.081,0,0,0,1.595.21,2.1,2.1,0,0,0,.5-3.846ZM5.612,9.267a.7.7,0,0,1,0,.986.687.687,0,0,1-.5.2.716.716,0,0,1-.5-.2l-.846-.846a1.385,1.385,0,0,1,0-1.965l.846-.846a.7.7,0,0,1,.986.986l-.846.846.846.832Zm3.2-3.532L7.689,11.33A.69.69,0,0,1,7,11.889a.5.5,0,0,1-.14-.014.7.7,0,0,1-.546-.825L7.437,5.455a.7.7,0,0,1,1.371.28Zm2.546,3.672-.846.846a.687.687,0,0,1-.5.2.716.716,0,0,1-.5-.2.7.7,0,0,1,0-.986l.846-.846-.846-.839a.7.7,0,1,1,.986-.986l.846.846a1.385,1.385,0,0,1,0,1.965Z" transform="translate(0)" fill="#5e5e5e"/></svg>