<svg xmlns="http://www.w3.org/2000/svg" width="14.502" height="13.295" viewBox="0 0 14.502 13.295"><g transform="translate(0 0.002)"><path d="M0,4.833v5.438a3.025,3.025,0,0,0,3.021,3.021h8.46A3.025,3.025,0,0,0,14.5,10.271V4.833Zm8.46,6.043H3.626a.6.6,0,1,1,0-1.208H8.46a.6.6,0,1,1,0,1.208m2.417-2.417H3.626a.6.6,0,1,1,0-1.209h7.251a.6.6,0,0,1,0,1.209M14.5,3.625v-.6A3.025,3.025,0,0,0,11.481,0H3.021A3.025,3.025,0,0,0,0,3.02v.6ZM6.043,1.208a.6.6,0,1,1-.6.6.6.6,0,0,1,.6-.6m-1.813,0a.6.6,0,1,1-.6.6.6.6,0,0,1,.6-.6m-1.813,0a.6.6,0,1,1-.6.6.6.6,0,0,1,.6-.6" transform="translate(0 0.001)" fill="#5e5e5e"/></g></svg>