<svg xmlns="http://www.w3.org/2000/svg" width="15.066" height="13.203" viewBox="0 0 15.066 13.203"><path d="M0,3.16a.942.942,0,0,1,.942-.942H11.3V.617A.614.614,0,0,1,12.345.177l2.518,2.485a.682.682,0,0,1,.006.964l-.006.006L12.345,6.118A.615.615,0,0,1,11.3,5.678V4.1H.942A.942.942,0,0,1,0,3.16M14.124,9.123H3.767v-1.6a.614.614,0,0,0-1.046-.439L.2,9.57a.682.682,0,0,0-.006.964L.2,10.54l2.518,2.485a.615.615,0,0,0,1.046-.438V11.007H14.124a.942.942,0,1,0,0-1.883" transform="translate(0 0)" fill="#5e5e5e"/></svg>