<svg xmlns="http://www.w3.org/2000/svg" width="62" height="62" viewBox="0 0 62 62"><circle cx="31" cy="31" r="31" fill="#eff0f3"/><g transform="translate(-33.131 -294.242)"><g transform="translate(54.285 324.669)"><path d="M301.383,253.8v-6.35a.611.611,0,0,0-.611-.611h-.95a.611.611,0,0,0-.611.611v6.35a.611.611,0,0,0,.611.611h.95a.611.611,0,0,0,.611-.611" transform="translate(-287.266 -246.84)" fill="#001942"/><path d="M408.05,253.8v-6.35a.611.611,0,0,0-.611-.611h-.95a.611.611,0,0,0-.611.611v6.35a.611.611,0,0,0,.611.611h.95a.611.611,0,0,0,.611-.611" transform="translate(-388.504 -246.84)" fill="#001942"/><path d="M66.717,253.8v-6.35a.611.611,0,0,0-.611-.611h-.95a.611.611,0,0,0-.611.611v6.35a.611.611,0,0,0,.611.611h.95a.611.611,0,0,0,.611-.611" transform="translate(-64.545 -246.84)" fill="#001942"/><path d="M173.383,253.8v-6.35a.611.611,0,0,0-.611-.611h-.95a.611.611,0,0,0-.611.611v6.35a.611.611,0,0,0,.611.611h.95a.611.611,0,0,0,.611-.611" transform="translate(-165.782 -246.84)" fill="#001942"/></g><g transform="translate(51 312.105)"><path d="M.317,9.288A2.653,2.653,0,0,1,.483,6.5,5.12,5.12,0,0,1,2.295,4.872L10.44.633a5.618,5.618,0,0,1,5.184,0l8.144,4.243A5.122,5.122,0,0,1,25.579,6.5a2.653,2.653,0,0,1,.166,2.786,2.946,2.946,0,0,1-2.623,1.569H2.942A2.946,2.946,0,0,1,.317,9.288" transform="translate(0.001 0)" fill="#001942"/><path d="M25.52,428.9a2.171,2.171,0,0,0-2.1-2.17H3.731a2.171,2.171,0,0,0-2.1,2.17,1.086,1.086,0,1,0,0,2.172H25.52a1.086,1.086,0,1,0,0-2.172" transform="translate(-0.517 -405.013)" fill="#001942"/></g></g></svg>