<svg xmlns="http://www.w3.org/2000/svg" width="62" height="62" viewBox="0 0 62 62"><circle cx="31" cy="31" r="31" fill="#eff0f3"/><path d="M24,19a3,3,0,0,1-3,3v1a1,1,0,1,1-2,0V22h-.27a3.016,3.016,0,0,1-2.6-1.5,1,1,0,1,1,1.73-1,1.006,1.006,0,0,0,.867.5H21a1,1,0,0,0,1-1,.768.768,0,0,0-.644-.76l-3.041-.506A2.76,2.76,0,0,1,16,15a3,3,0,0,1,3-3V11a1,1,0,1,1,2,0v1h.271a3.016,3.016,0,0,1,2.6,1.5,1,1,0,1,1-1.73,1,1,1,0,0,0-.867-.5H19a1,1,0,0,0-1,1,.768.768,0,0,0,.644.76l3.041.506A2.76,2.76,0,0,1,24,19ZM13,8h6.54a6.984,6.984,0,0,0-1.587-2.463L14.468,2.044A6.984,6.984,0,0,0,12,.46V7a1,1,0,0,0,1,1Zm3.868,15.636A4.967,4.967,0,0,1,15,24H5a5.006,5.006,0,0,1-5-5V5A5.006,5.006,0,0,1,5,0H9.514c.159,0,.317.013.486.024V7a3,3,0,0,0,3,3h4.171a3.016,3.016,0,0,0-.11.39,5.033,5.033,0,0,0-2.708,2.76,2.5,2.5,0,0,0-.856-.159H6.508A2.5,2.5,0,0,0,4,15.5v2A2.5,2.5,0,0,0,6.508,20h6.984a2.484,2.484,0,0,0,.5-.051,2.978,2.978,0,0,0,.4,1.552,5.011,5.011,0,0,0,2.467,2.137ZM4,6A1,1,0,0,0,5,7H7A1,1,0,1,0,7,5H5A1,1,0,0,0,4,6m0,4a1,1,0,0,0,1,1H7A1,1,0,1,0,7,9H5a1,1,0,0,0-1,1m2.508,5a.5.5,0,0,0-.5.5v2a.5.5,0,0,0,.5.5h6.984a.5.5,0,0,0,.5-.5v-2a.5.5,0,0,0-.5-.5Z" transform="translate(18.991 19)" fill="#001942"/></svg>