<svg xmlns="http://www.w3.org/2000/svg" xmlns:xlink="http://www.w3.org/1999/xlink" width="62" height="62" viewBox="0 0 62 62"><defs><clipPath id="a"><rect width="22.399" height="23.441" fill="#001942"/></clipPath></defs><circle cx="31" cy="31" r="31" fill="#eff0f3"/><g transform="translate(19.801 19.605)"><g clip-path="url(#a)"><path d="M134.758,143.7a7.033,7.033,0,1,0,7.01,7.038,7.045,7.045,0,0,0-7.01-7.038m3.817,5.766a1.429,1.429,0,0,1-.175.2q-1.475,1.476-2.952,2.949a1.935,1.935,0,0,1-1.441.6,1.821,1.821,0,0,1-1.2-.483q-.5-.467-.969-.963a.777.777,0,0,1,1.106-1.092c.284.268.553.551.831.825.234.231.336.234.569,0q1.495-1.49,2.986-2.984a.781.781,0,0,1,1.243.943" transform="translate(-119.37 -134.324)" fill="#001942"/><path d="M15.205,6.959a2.788,2.788,0,0,0-1.771-1.392c-.132-.036-.267-.061-.429-.1a4.974,4.974,0,0,0-1.085-3.791A4.57,4.57,0,0,0,8.376,0,4.509,4.509,0,0,0,5.265,1.144a4.855,4.855,0,0,0-1.61,4.324c-.07.02-.108.035-.146.041A2.781,2.781,0,0,0,1.148,7.933c-.16,1.348-.269,2.7-.4,4.055C.5,14.571.251,17.153.014,19.737a3.413,3.413,0,0,0,2.622,3.6,3.549,3.549,0,0,0,.772.1c1.726.008,3.452.006,5.177,0a.782.782,0,0,0,.838-.741,8.811,8.811,0,0,1-.76-.816h.019A8.628,8.628,0,0,1,10.827,9.052a.778.778,0,0,1,.625-1.24.788.788,0,0,1,.748.55,8.541,8.541,0,0,1,1.752-.485l-.009-.012a8.685,8.685,0,0,1,1.278-.115.785.785,0,0,0-.016-.791M5.2,4.655A3.274,3.274,0,0,1,5.575,3.2,3.277,3.277,0,0,0,5.2,4.655,3.271,3.271,0,0,1,5.582,3.19a2.955,2.955,0,0,1,.265-.4c.048-.062.1-.123.155-.184a3.514,3.514,0,0,1,.476-.429A3.078,3.078,0,0,1,9.9,1.989a3.291,3.291,0,0,1,1.53,3.467H5.24a4.886,4.886,0,0,1-.04-.8m.346,4.718a.781.781,0,1,1,.023-1.561.781.781,0,0,1-.023,1.561M13.9,7.807l.027.035c-.009-.012-.018-.023-.027-.035" transform="translate(0 0)" fill="#001942"/></g></g></svg>