<svg xmlns="http://www.w3.org/2000/svg" width="62" height="62" viewBox="0 0 62 62"><circle cx="31" cy="31" r="31" fill="#eff0f3"/><path d="M26.8,5.584h-.677a4.992,4.992,0,0,0-7.718-.818l-.632.632a1.808,1.808,0,0,0-.162.186H0A5.59,5.59,0,0,1,5.584,0H21.218A5.59,5.59,0,0,1,26.8,5.584" transform="translate(17.599 20.949)" fill="#001942"/><path d="M25.464,153.335l-3.285,3.285a4.958,4.958,0,0,1-2.433,1.342,1.909,1.909,0,0,1,.024.3,1.841,1.841,0,0,1-.544,1.31l-.631.631a4.953,4.953,0,0,1-2.807,1.41h5.43A5.591,5.591,0,0,0,26.8,156.03V150.9a4.96,4.96,0,0,1-1.338,2.432m-3.074-2.874a1.826,1.826,0,0,1,.244.461l.208-.207a1.289,1.289,0,0,0,.283-1.384H21.251a5.058,5.058,0,0,1,.629.534,4.976,4.976,0,0,1,.51.6m-6.244,6.949a5,5,0,0,1-1.022-.789,5.077,5.077,0,0,1-.507-.592,1.862,1.862,0,0,1-.249-.466l-.207.207a1.282,1.282,0,1,0,1.813,1.813Zm-6.068-.734a4.954,4.954,0,0,1,1.462-3.528l3.284-3.285a4.984,4.984,0,0,1,.628-.533H0v6.7a5.591,5.591,0,0,0,5.584,5.584h8.763a4.993,4.993,0,0,1-4.269-4.938m-3.935.472a1.675,1.675,0,1,1,1.675-1.675,1.675,1.675,0,0,1-1.675,1.675" transform="translate(17.599 -120.563)" fill="#001942"/><path d="M221.19,96.81a3.882,3.882,0,0,1-.383-.447.6.6,0,0,1,.966-.7,2.539,2.539,0,0,0,3.851.305l3.285-3.285a2.539,2.539,0,1,0-3.59-3.59l-.632.632a.6.6,0,0,1-.845-.845l.632-.632a3.733,3.733,0,1,1,5.279,5.279l-3.285,3.285a3.732,3.732,0,0,1-5.278,0Zm-.945,4.677a3.706,3.706,0,0,0,2.639-1.094l.632-.632a.6.6,0,0,0-.845-.844l-.633.632a2.538,2.538,0,1,1-3.59-3.59l3.285-3.285a2.538,2.538,0,0,1,3.59,0,2.631,2.631,0,0,1,.26.3.6.6,0,0,0,.966-.7,3.733,3.733,0,0,0-5.661-.447l-3.285,3.285a3.733,3.733,0,0,0,2.639,6.372" transform="translate(-187.579 -61.642)" fill="#001942"/></svg>