<svg xmlns="http://www.w3.org/2000/svg" width="62" height="62" viewBox="0 0 62 62"><circle cx="31" cy="31" r="31" fill="#eff0f3"/><g transform="translate(19.026 21.179)"><path d="M0,7.471v8.406a4.676,4.676,0,0,0,4.67,4.67H17.748a4.676,4.676,0,0,0,4.667-4.67V7.471Zm13.078,9.341H5.605a.934.934,0,1,1,0-1.867h7.473a.934.934,0,0,1,0,1.867m3.736-3.736H5.605a.934.934,0,0,1,0-1.869H16.814a.934.934,0,1,1,0,1.869m5.6-7.473V4.676A4.676,4.676,0,0,0,17.748,0H4.67A4.676,4.676,0,0,0,0,4.668V5.6ZM9.341,1.867a.927.927,0,1,1-.927.927.927.927,0,0,1,.927-.927m-2.8,0a.927.927,0,1,1-.927.927.927.927,0,0,1,.927-.927m-2.8,0a.927.927,0,1,1-.927.927.927.927,0,0,1,.927-.927" transform="translate(0 0.001)" fill="#001942"/></g></svg>